<svg width="240" height="127" viewBox="0 0 240 127" fill="none" xmlns="http://www.w3.org/2000/svg">
<path d="M58.8125 66.9764C55.874 75.0813 51.5265 81.5354 45.7578 86.3388C39.9892 91.1421 33.6907 93.55 26.8623 93.55C18.9981 93.55 12.6274 91.0304 7.74992 86.0037C2.86043 80.9645 0.427734 74.3986 0.427734 66.3061C0.427734 58.2136 3.75162 50.6052 10.3994 44.1635C17.0472 37.7342 24.7066 34.5071 33.3655 34.5071C39.6761 34.5071 44.6017 35.8351 48.1303 38.4789C51.6589 41.135 53.345 44.5358 53.2005 48.6938C53.0559 50.5059 52.3936 51.6974 51.2134 52.2684C50.0331 52.8393 47.9136 53.1248 44.8185 53.1248H13.3018C13.1573 53.9564 13.0609 54.8252 13.0248 55.7313C12.9887 56.6373 12.9646 57.5806 12.9646 58.5736C12.9646 65.76 15.1805 71.5935 19.6244 76.0618C24.0683 80.53 29.8128 82.7642 36.8701 82.7642C41.7957 82.8386 46.0348 81.5106 49.5996 78.7924C53.1643 76.0618 56.0065 72.0155 58.1381 66.6412C58.2826 66.2689 58.4633 66.1448 58.6921 66.3061C58.9089 66.4551 58.945 66.6909 58.8005 66.9888L58.8125 66.9764ZM39.2064 46.0873C39.2064 43.2822 38.2911 40.9736 36.4486 39.1615C34.606 37.3494 32.1492 36.4309 29.0662 36.4309C24.9474 36.4309 21.5151 37.8459 18.7693 40.6882C16.0115 43.5305 14.2291 47.4402 13.4222 52.4421C16.722 52.3677 19.9255 52.2932 23.0085 52.2187C26.0915 52.1443 29.5117 52.0325 33.2571 51.8836C34.2085 51.8091 35.0877 51.6354 35.9066 51.3747C36.7135 51.1141 37.3036 50.8286 37.6649 50.5183C38.1828 50.0591 38.5681 49.4757 38.821 48.7558C39.0739 48.0359 39.2064 47.1423 39.2064 46.0873V46.0873Z" fill="#1D1D1B"/>
<path d="M99.5785 81.6225C96.64 85.557 93.4125 88.5359 89.8839 90.5342C86.3552 92.5449 82.6098 93.5378 78.6477 93.5378C72.4094 93.5378 67.3874 91.2913 63.6059 86.7858C59.8244 82.2803 57.9336 76.4716 57.9336 69.3596C57.9336 59.1447 60.8841 50.7792 66.7973 44.263C72.7104 37.7592 80.1049 34.4949 88.9927 34.4949C90.8232 34.4949 92.6297 34.7183 94.388 35.1775C96.1463 35.6368 97.8805 36.3194 99.5665 37.2255V17.2425C99.5665 15.3559 99.4942 13.8168 99.3497 12.6377C99.2052 11.471 98.9764 10.5401 98.6873 9.85745C98.314 8.95139 97.7359 8.38045 96.9291 8.15704C96.1222 7.93362 94.5807 8.04533 92.3045 8.49215C91.8589 8.56662 91.6421 8.43009 91.6421 8.09498C91.6421 7.75986 91.8589 7.54886 92.3045 7.47439C94.6529 7.01515 97.7239 6.03462 101.505 4.52038C105.287 3.00614 108.394 1.52913 110.815 0.089365C111.031 -0.0595766 111.453 -0.0223412 112.079 0.201071C112.705 0.424484 113.019 0.660308 113.019 0.88372V78.8919C113.019 84.9488 113.332 88.5483 113.958 89.6777C114.584 90.8196 116.138 91.3782 118.643 91.3782C119.088 91.3782 119.305 91.5519 119.305 91.887C119.305 92.2222 119.088 92.3959 118.643 92.3959C114.681 92.3959 111.007 92.4952 107.623 92.6814C104.239 92.8676 101.746 93.153 100.133 93.5378C99.6869 93.6123 99.3618 93.575 99.145 93.4261C98.9282 93.2772 98.8198 92.9669 98.8198 92.52V92.1849C98.8198 92.036 98.8559 91.7257 98.9282 91.2789C99.145 89.3054 99.3136 87.5926 99.422 86.1156C99.5304 84.6385 99.5906 83.1491 99.5906 81.6349L99.5785 81.6225ZM85.8013 36.0836C81.0202 36.0836 77.5156 38.2557 75.2756 42.6122C73.0356 46.9687 71.9156 53.7208 71.9156 62.8807C71.9156 70.6753 73.2403 76.8439 75.8778 81.3867C78.5272 85.9294 82.1522 88.2007 86.7888 88.2007C89.0649 88.2007 91.2688 87.5429 93.4004 86.2148C95.5321 84.8868 97.5914 82.8637 99.5665 80.1455V46.3109C97.8805 43.208 95.8211 40.7256 93.4004 38.8762C90.9798 37.0269 88.4387 36.096 85.8013 36.096V36.0836Z" fill="#1D1D1B"/>
<path d="M164.768 88.0888C161.974 89.9878 159.204 91.3655 156.446 92.2343C153.688 93.1032 150.701 93.5376 147.462 93.5376C139.092 93.5376 132.384 91.0552 127.35 86.1029C122.316 81.1506 119.799 74.5351 119.799 66.2937C119.799 58.0522 123.123 50.5927 129.77 44.151C136.418 37.7217 144.078 34.4946 152.737 34.4946C159.047 34.4946 163.973 35.8227 167.501 38.4664C171.03 41.1225 172.716 44.5234 172.572 48.6813C172.427 50.4934 171.765 51.685 170.584 52.2559C169.404 52.8269 167.285 53.1123 164.19 53.1123H132.685C132.54 53.9439 132.444 54.8127 132.408 55.7188C132.372 56.6249 132.348 57.5682 132.348 58.5611C132.348 65.8344 134.624 71.6804 139.176 76.099C143.728 80.53 149.678 82.7393 157.024 82.7393C163.19 82.7393 168.501 80.6541 172.945 76.4962C177.389 72.3382 180.821 66.244 183.242 58.2136C183.386 57.7543 183.567 57.5558 183.796 57.593C184.012 57.6302 184.049 57.9157 183.904 58.4494C182.146 64.6553 179.532 70.4268 176.076 75.7639C172.62 81.1009 168.838 85.2093 164.732 88.0888H164.768ZM158.602 46.0748C158.602 43.2698 157.686 40.9612 155.844 39.1491C154.001 37.3369 151.544 36.4185 148.461 36.4185C144.343 36.4185 140.91 37.8334 138.165 40.6757C135.407 43.518 133.624 47.4277 132.817 52.4297C136.117 52.3552 139.321 52.2807 142.404 52.2063C145.487 52.1318 148.907 52.0201 152.652 51.8712C153.604 51.7967 154.483 51.6229 155.302 51.3623C156.109 51.1016 156.699 50.8161 157.06 50.5059C157.578 50.0466 157.963 49.4633 158.216 48.7434C158.469 48.0235 158.602 47.1298 158.602 46.0748V46.0748Z" fill="#1D1D1B"/>
<path d="M184.699 92.2964C182.639 92.3709 181.134 92.4081 180.183 92.4081H177.762C177.316 92.4081 177.1 92.2343 177.1 91.8992C177.1 91.5641 177.316 91.3903 177.762 91.3903C180.038 91.3903 181.471 90.596 182.061 89.0073C182.651 87.4185 182.94 84.055 182.94 78.9041V51.7594C182.94 50.4686 182.531 49.1281 181.724 47.7256C180.917 46.3231 179.629 44.7964 177.87 43.1208C177.726 42.9719 177.654 42.8354 177.654 42.7237C177.654 42.6119 177.726 42.5127 177.87 42.4382C179.267 41.9045 181.676 40.7005 185.084 38.8015C188.504 36.9149 190.648 35.5496 191.527 34.718C191.672 34.5691 191.78 34.507 191.852 34.5443C191.925 34.5815 192.033 34.6808 192.178 34.8297C193.346 35.9592 194.393 37.7589 195.321 40.2289C196.236 42.6864 196.694 45.0198 196.694 47.2167C199.849 42.8974 203.089 39.7076 206.388 37.6224C209.688 35.5372 213.181 34.4946 216.854 34.4946C222.659 34.4946 227.03 36.406 229.969 40.2289C232.907 44.0517 234.376 49.786 234.376 57.4316V81.2747C234.376 85.2093 234.665 87.9026 235.256 89.3424C235.846 90.7822 237.207 91.4648 239.338 91.3903C239.784 91.3903 240.001 91.5641 240.001 91.8992C240.001 92.2343 239.784 92.4081 239.338 92.4081H238.122C237.459 92.4081 236.062 92.3709 233.931 92.2964C230.547 92.2964 228.222 92.284 226.934 92.2343C225.645 92.1971 224.826 92.1723 224.453 92.1723H223.465C223.02 92.1723 222.249 92.2095 221.153 92.284C219.467 92.3584 218.191 92.3957 217.348 92.3957H215.083C214.638 92.3957 214.421 92.2219 214.421 91.8868C214.421 91.5517 214.638 91.3779 215.083 91.3779C217.649 91.3779 219.25 90.6829 219.877 89.2803C220.503 87.8778 220.816 84.9858 220.816 80.5921L220.708 56.9724C220.635 51.3747 219.696 47.1547 217.902 44.3124C216.107 41.4701 213.434 40.0551 209.917 40.0551C207.424 40.0551 205.16 40.7005 203.137 41.9914C201.113 43.2822 199.006 45.4418 196.802 48.4579V91.3779H202.535C202.98 91.3779 203.197 91.5517 203.197 91.8868C203.197 92.2219 202.98 92.3957 202.535 92.3957H201.378C200.752 92.3957 199.452 92.3584 197.464 92.284C194.309 92.284 192.117 92.2716 190.913 92.2219C189.697 92.1847 188.914 92.1599 188.541 92.1599H187.445C186.927 92.1599 186.011 92.1971 184.687 92.2716L184.699 92.2964Z" fill="#1D1D1B"/>
<path d="M7.60352 108.792H10.6745V123.624H18.0569V126.23H7.60352V108.804V108.792Z" fill="#1D1D1B"/>
<path d="M31.798 123.736V126.218H20.6582V108.792H31.6415V111.274H23.7292V116.065H31.232V118.523H23.7292V123.748H31.798V123.736Z" fill="#1D1D1B"/>
<path d="M45.0809 121.626H38.4572L36.9277 126.218H33.8086L40.0951 108.792H43.431L49.7175 126.218H46.5983L45.0689 121.626H45.0809ZM44.274 119.218L42.299 113.322C42.1063 112.751 41.9377 112.143 41.7932 111.46H41.745C41.6005 112.143 41.4319 112.764 41.2392 113.322L39.2641 119.218H44.262H44.274Z" fill="#1D1D1B"/>
<path d="M58.2683 119.23H55.2936V126.23H52.2227V108.804H59.039C63.3986 108.804 64.904 111.162 64.904 114.029C64.904 116.089 63.8563 118.075 61.3513 118.82L65.3737 126.23H61.9896L58.2683 119.23V119.23ZM55.2936 116.871H58.5091C60.8214 116.871 61.6765 115.667 61.6765 114.029C61.6765 112.391 60.8214 111.212 58.5091 111.212H55.2936V116.884V116.871Z" fill="#1D1D1B"/>
<path d="M68.3594 108.792H71.888L78.2467 120.21C78.7044 120.992 79.0536 121.762 79.2945 122.444H79.3427C79.3186 121.811 79.2945 121.116 79.2945 120.186V108.792H82.0764V126.218H78.6201L72.165 114.749C71.7074 113.918 71.4063 113.272 71.1413 112.565H71.0932C71.1413 113.223 71.1413 113.918 71.1413 114.873V126.218H68.3594V108.792V108.792Z" fill="#1D1D1B"/>
<path d="M86.2578 126.218V108.792H89.3288V126.218H86.2578Z" fill="#1D1D1B"/>
<path d="M93.5195 108.792H97.0482L103.407 120.211C103.865 120.993 104.214 121.762 104.455 122.445H104.503C104.479 121.812 104.455 121.117 104.455 120.186V108.792H107.237V126.218H103.78L97.3251 114.749C96.8675 113.918 96.5664 113.272 96.3015 112.565H96.2533C96.3015 113.223 96.3015 113.918 96.3015 114.874V126.218H93.5195V108.792V108.792Z" fill="#1D1D1B"/>
<path d="M110.235 117.53C110.235 112.131 113.209 108.37 118.279 108.37C122.856 108.37 124.759 111.287 125.156 113.67L122.109 114.216C121.844 112.664 120.821 110.877 118.231 110.877C115.136 110.877 113.378 113.533 113.378 117.505C113.378 121.477 114.992 124.083 118.255 124.083C121.688 124.083 122.567 121.191 122.567 119.59V119.267H117.99V116.835H125.349V126.206H123.157L122.892 123.525C122.109 125.386 120.194 126.615 117.677 126.615C113.005 126.615 110.223 122.879 110.223 117.505L110.235 117.53Z" fill="#1D1D1B"/>
<path d="M133.78 117.53C133.78 112.131 136.754 108.37 141.824 108.37C146.401 108.37 148.304 111.287 148.701 113.67L145.654 114.216C145.389 112.664 144.365 110.877 141.776 110.877C138.681 110.877 136.923 113.533 136.923 117.505C136.923 121.477 138.537 124.083 141.8 124.083C145.233 124.083 146.112 121.191 146.112 119.59V119.267H141.535V116.835H148.894V126.206H146.702L146.437 123.525C145.654 125.386 143.739 126.615 141.222 126.615C136.55 126.615 133.768 122.879 133.768 117.505L133.78 117.53Z" fill="#1D1D1B"/>
<path d="M162.116 121.626H155.492L153.963 126.218H150.844L157.13 108.792H160.466L166.753 126.218H163.633L162.104 121.626H162.116ZM161.309 119.218L159.334 113.322C159.141 112.751 158.973 112.143 158.828 111.46H158.78C158.636 112.143 158.467 112.764 158.274 113.322L156.299 119.218H161.297H161.309Z" fill="#1D1D1B"/>
<path d="M175.301 119.23H172.327V126.23H169.256V108.804H176.072C180.432 108.804 181.937 111.162 181.937 114.029C181.937 116.089 180.889 118.075 178.385 118.82L182.407 126.23H179.023L175.301 119.23V119.23ZM172.327 116.871H175.542C177.855 116.871 178.71 115.667 178.71 114.029C178.71 112.391 177.855 111.212 175.542 111.212H172.327V116.884V116.871Z" fill="#1D1D1B"/>
<path d="M185.396 108.792H191.49C196.44 108.792 199.68 112.279 199.68 117.43C199.68 122.581 196.464 126.218 191.442 126.218H185.396V108.792ZM191.346 123.735C194.634 123.735 196.464 120.893 196.464 117.43C196.464 113.967 194.706 111.274 191.394 111.274H188.467V123.748H191.346V123.735Z" fill="#1D1D1B"/>
<path d="M213.794 123.736V126.218H202.654V108.792H213.638V111.274H205.725V116.065H213.228V118.523H205.725V123.748H213.794V123.736Z" fill="#1D1D1B"/>
<path d="M217.271 108.792H220.8L227.159 120.211C227.616 120.993 227.966 121.762 228.207 122.445H228.255C228.231 121.812 228.207 121.117 228.207 120.186V108.792H230.989V126.218H227.532L221.077 114.749C220.619 113.918 220.318 113.272 220.053 112.565H220.005C220.053 113.223 220.053 113.918 220.053 114.874V126.218H217.271V108.792Z" fill="#1D1D1B"/>
</svg>
