<svg width="217" height="113" viewBox="0 0 217 113" fill="none" xmlns="http://www.w3.org/2000/svg">
<path d="M42.4713 31.9277V1.39773H36.4943V31.9277H42.4713ZM46.8663 31.9277H52.1553V16.9637C52.1553 14.8997 52.0693 13.0077 51.9403 11.0297H52.0693C52.4133 12.5777 52.8003 14.0397 53.4023 15.8457L58.9923 31.9277H64.7543V1.39773H59.5083V14.0397C59.5083 16.3187 59.5943 18.5547 59.7233 20.7907H59.6373C59.2933 19.2857 58.8633 17.7377 58.3903 16.2327L53.2733 1.39773H46.8663V31.9277ZM76.2172 32.6587C81.8502 32.6587 84.7742 29.6057 84.7742 25.2197V22.8977C84.7742 19.6727 83.9142 17.5227 80.4742 15.4157L76.0882 12.7497C74.6692 11.8467 73.8952 10.7287 73.8952 9.13773V7.76173C73.8952 6.29973 74.7552 5.18173 76.2602 5.18173C78.0662 5.18173 78.7972 6.51473 78.7972 8.57873V11.8467L84.7312 10.7287V8.49273C84.7312 2.73073 81.4632 0.666732 76.2602 0.666732C71.5732 0.666732 67.8752 3.11773 67.8752 8.10573V9.69673C67.8752 12.9217 68.9502 15.2007 72.0892 17.0927L76.4322 19.7587C78.3672 21.0057 78.6682 21.9517 78.6682 23.8437V25.0907C78.6682 26.7677 77.9802 28.0577 76.2602 28.0577C74.4972 28.0577 73.6802 26.6387 73.6802 24.1877V20.7047L67.6172 21.8657V24.3167C67.6172 29.4337 70.7132 32.6587 76.2172 32.6587ZM102.991 1.39773H85.4467V6.47173H91.2517V31.9277H97.1857V6.47173H102.991V1.39773ZM110.67 31.9277H116.647V20.9627L123.054 1.39773H116.819L114.325 11.5887C114.024 12.9647 113.895 14.1257 113.723 15.6307H113.637C113.465 14.1257 113.336 12.9647 112.992 11.5887L110.412 1.39773H104.177L110.67 20.9627V31.9277ZM141.792 1.39773H124.248V6.47173H130.053V31.9277H135.987V6.47173H141.792V1.39773ZM143.694 1.39773V24.4887C143.694 29.5197 146.79 32.6587 152.423 32.6587C158.013 32.6587 161.109 29.5197 161.109 24.4887V1.39773H155.175V24.2307C155.175 26.4237 154.143 27.6277 152.423 27.6277C150.617 27.6277 149.671 26.4237 149.671 24.2307V1.39773H143.694ZM180.55 1.39773H163.006V6.47173H168.811V31.9277H174.745V6.47173H180.55V1.39773ZM0.673086 71.9277H2.95209L7.29509 47.4607C7.55309 46.0417 7.68209 45.0097 7.81109 43.8917H7.94009C8.41309 44.9667 8.84309 45.7837 9.48809 46.9017L24.4091 71.9277H27.0321L32.4071 41.3977H30.1711L25.8711 65.5207C25.6131 66.9827 25.4411 68.0577 25.3121 69.1757H25.2261C24.7531 68.1007 24.2801 67.2407 23.6781 66.1657L8.92909 41.3977H6.04809L0.673086 71.9277ZM51.3194 72.8307C64.2194 72.8307 68.9924 62.6397 68.9924 54.2117C68.9924 43.6767 61.6394 40.4947 54.2004 40.4947C41.3004 40.4947 36.5274 50.6857 36.5274 59.1137C36.5274 69.6487 43.8804 72.8307 51.3194 72.8307ZM51.4484 70.7237C45.5144 70.7237 39.1074 68.3587 39.1074 59.0707C39.1074 51.8897 42.9344 42.6017 54.0714 42.6017C60.0054 42.6017 66.4124 44.9667 66.4124 54.2547C66.4124 61.4787 62.5854 70.7237 51.4484 70.7237ZM77.7768 71.9277H80.7438L94.2028 45.8697C94.5898 45.1817 94.8478 44.6657 94.9768 44.2357H95.0628C95.0628 44.6657 95.1058 45.1817 95.2348 45.8697L99.4918 71.9277H102.416L117.165 41.3977H114.585L101.986 67.8857C101.685 68.6167 101.384 69.2187 101.341 69.4767H101.255C101.255 69.2187 101.169 68.6167 101.04 67.8857L96.6538 41.3977H94.1598L80.3998 67.8857C80.0558 68.6167 79.7548 69.2187 79.6688 69.4767H79.6258C79.6258 69.2187 79.5398 68.6167 79.4538 67.8857L76.2288 41.3977H73.7348L77.7768 71.9277ZM145.567 43.4617L145.911 41.3977H123.336L117.961 71.9277H140.837L141.181 69.8637H120.756L122.949 57.3077H142.385L142.729 55.2437H123.336L125.4 43.4617H145.567ZM161.519 72.8307C167.625 72.8307 172.097 70.2507 174.505 65.6067L173.602 71.9277H175.537L178.289 56.2757H163.798L163.411 58.3827H175.666L175.365 60.1457C174.505 65.0907 170.334 70.7237 161.777 70.7237C155.843 70.7237 150.511 68.1867 150.511 59.5437C150.511 52.1047 154.338 42.6017 165.604 42.6017C171.151 42.6017 175.709 44.6227 176.483 50.5567L179.02 50.2127C178.246 43.2897 172.785 40.4947 165.733 40.4947C152.876 40.4947 147.974 50.8147 147.974 59.5867C147.974 69.5197 154.51 72.8307 161.519 72.8307ZM198.376 72.8307C211.276 72.8307 216.049 62.6397 216.049 54.2117C216.049 43.6767 208.696 40.4947 201.257 40.4947C188.357 40.4947 183.584 50.6857 183.584 59.1137C183.584 69.6487 190.937 72.8307 198.376 72.8307ZM198.505 70.7237C192.571 70.7237 186.164 68.3587 186.164 59.0707C186.164 51.8897 189.991 42.6017 201.128 42.6017C207.062 42.6017 213.469 44.9667 213.469 54.2547C213.469 61.4787 209.642 70.7237 198.505 70.7237ZM35.8995 111.928V81.3977H29.9225V111.928H35.8995ZM40.2946 111.928H45.5836V96.9637C45.5836 94.8997 45.4976 93.0077 45.3686 91.0297H45.4976C45.8416 92.5777 46.2286 94.0397 46.8306 95.8457L52.4206 111.928H58.1826V81.3977H52.9366V94.0397C52.9366 96.3187 53.0226 98.5547 53.1516 100.791H53.0656C52.7216 99.2857 52.2916 97.7377 51.8186 96.2327L46.7016 81.3977H40.2946V111.928ZM77.8584 81.3977H60.3144V86.4717H66.1194V111.928H72.0534V86.4717H77.8584V81.3977ZM85.9962 107.327V98.5117H93.3492V93.9107H85.9962V85.9987H93.9512V81.3977H80.0192V111.928H94.2522V107.327H85.9962ZM108.633 111.928H114.868L110.568 98.0817C112.847 96.9637 114.18 94.6417 114.18 91.0297V89.5677C114.137 84.4507 111.643 81.3977 105.279 81.3977H97.152V111.928H103.129V99.5007H105.279L108.633 111.928ZM103.129 95.6737V85.5257H104.892C107.171 85.5257 108.031 86.6007 108.031 89.3957V91.3307C108.031 94.2977 107.214 95.6737 104.892 95.6737H103.129ZM117.476 111.928H122.765V96.9637C122.765 94.8997 122.679 93.0077 122.55 91.0297H122.679C123.023 92.5777 123.41 94.0397 124.012 95.8457L129.602 111.928H135.364V81.3977H130.118V94.0397C130.118 96.3187 130.204 98.5547 130.333 100.791H130.247C129.903 99.2857 129.473 97.7377 129 96.2327L123.883 81.3977H117.476V111.928ZM145.709 107.327V98.5117H153.062V93.9107H145.709V85.9987H153.664V81.3977H139.732V111.928H153.965V107.327H145.709ZM173.013 81.3977H155.469V86.4717H161.274V111.928H167.208V86.4717H173.013V81.3977ZM174.915 81.3977V104.489C174.915 109.52 178.011 112.659 183.644 112.659C189.234 112.659 192.33 109.52 192.33 104.489V81.3977H186.396V104.231C186.396 106.424 185.364 107.628 183.644 107.628C181.838 107.628 180.892 106.424 180.892 104.231V81.3977H174.915Z" fill="black"/>
</svg>
