<svg width="212" height="108" viewBox="0 0 212 108" fill="none" xmlns="http://www.w3.org/2000/svg">
<path d="M30.3188 43.1694C38.0363 43.1694 43.0763 37.5781 43.0763 28.5219C43.0763 19.3869 38.0363 13.8744 30.3188 13.8744C22.5619 13.8744 17.5219 19.3869 17.5219 28.5219C17.5219 37.46 22.5619 43.1694 30.3188 43.1694ZM30.3188 40.0194C24.7275 40.0194 21.4594 35.5306 21.4594 28.5219C21.4594 21.3556 24.7275 17.0244 30.3188 17.0244C35.91 17.0244 39.1388 21.3556 39.1388 28.5219C39.1388 35.6487 35.91 40.0194 30.3188 40.0194ZM47.6145 42.5H56.7102C64.8608 42.5 70.0583 36.6331 70.0583 28.4825C70.0583 20.1744 64.8214 14.5437 56.7889 14.5437H47.6145V42.5ZM51.3552 39.35V17.6937H56.7102C62.7345 17.6937 66.0814 22.2613 66.0814 28.4825C66.0814 34.4675 62.6558 39.35 56.6314 39.35H51.3552ZM70.4443 39.035V42.5H90.6831V39.35H74.3818L90.1318 18.0087V14.5437H70.9562V17.6937H86.155L70.4443 39.035ZM97.9807 42.5V14.5437H94.2401V42.5H97.9807ZM108.412 39.35V29.7425H121.327V26.5925H108.412V17.6937H121.996V14.5437H104.671V42.5H122.272V39.35H108.412ZM132.994 12.8506H137.168V8.6375H132.994V12.8506ZM125.04 39.035V42.5H145.279V39.35H128.978L144.728 18.0087V14.5437H125.552V17.6937H140.751L125.04 39.035Z" fill="black"/>
<path d="M34.8244 95.375H39.0375L31.8713 83.2475C36.5569 82.1844 38.1713 78.7587 38.1713 75.6087C38.1713 71.5137 36.2419 67.4187 28.9181 67.4187H18.5625V95.375H22.3031V83.7594H27.9731L34.8244 95.375ZM22.3031 70.5687H28.485C32.7769 70.5687 34.2338 72.7344 34.2338 75.6087C34.2338 78.4044 32.8163 80.6094 28.485 80.6094H22.3031V70.5687ZM53.4294 96.0444C61.1469 96.0444 66.1869 90.4531 66.1869 81.3969C66.1869 72.2619 61.1469 66.7494 53.4294 66.7494C45.6725 66.7494 40.6325 72.2619 40.6325 81.3969C40.6325 90.335 45.6725 96.0444 53.4294 96.0444ZM53.4294 92.8944C47.8381 92.8944 44.57 88.4056 44.57 81.3969C44.57 74.2306 47.8381 69.8994 53.4294 69.8994C59.0206 69.8994 62.2494 74.2306 62.2494 81.3969C62.2494 88.5237 59.0206 92.8944 53.4294 92.8944ZM85.0576 80.9244C88.247 80.0187 89.7433 77.4987 89.7433 74.8606C89.7433 71.5531 87.8139 67.4187 80.4508 67.4187H70.7251V95.375H81.2776C88.3651 95.375 90.5308 91.28 90.5308 87.6969C90.5308 83.9562 88.4045 81.515 85.0576 80.9244ZM80.4508 70.5687C84.9789 70.5687 86.042 72.9312 86.042 75.1363C86.042 77.0656 85.2545 79.5462 80.4508 79.5462H74.4658V70.5687H80.4508ZM81.0808 92.225H74.4658V82.6962H81.4745C85.2939 82.6962 86.8295 84.7437 86.8295 87.3425C86.8295 89.8625 85.4514 92.225 81.0808 92.225ZM105.707 96.0444C113.425 96.0444 118.465 90.4531 118.465 81.3969C118.465 72.2619 113.425 66.7494 105.707 66.7494C97.9505 66.7494 92.9105 72.2619 92.9105 81.3969C92.9105 90.335 97.9505 96.0444 105.707 96.0444ZM105.707 92.8944C100.116 92.8944 96.848 88.4056 96.848 81.3969C96.848 74.2306 100.116 69.8994 105.707 69.8994C111.299 69.8994 114.527 74.2306 114.527 81.3969C114.527 88.5237 111.299 92.8944 105.707 92.8944ZM133.438 96.0444C140.171 96.0444 143.557 91.8706 144.62 86.5944L140.998 85.9644C140.21 90.1381 137.414 92.7763 133.438 92.7763C127.728 92.7763 124.775 87.815 124.775 81.2787C124.775 74.5062 127.886 69.9387 133.359 69.9387C137.69 69.9387 140.249 72.7344 140.801 76.9475L144.62 76.5537C143.911 70.7656 140.368 66.7494 133.556 66.7494C125.248 66.7494 120.838 72.7344 120.838 81.3181C120.838 89.4294 124.775 96.0444 133.438 96.0444ZM146.794 91.91V95.375H167.033V92.225H150.732L166.482 70.8837V67.4187H147.306V70.5687H162.505L146.794 91.91ZM189.466 95.375H193.325L182.733 67.4187H179.032L168.44 95.375H172.299L175.173 87.3031H186.592L189.466 95.375ZM176.275 84.1531L180.174 73.2462C180.41 72.6162 180.607 71.9469 180.843 71.12H180.922C181.158 71.9469 181.355 72.6162 181.591 73.2462L185.489 84.1531H176.275Z" fill="black"/>
<rect x="1.125" y="1.125" width="165.375" height="52.875" rx="21.375" stroke="black" stroke-width="2.25"/>
<rect x="1.125" y="54" width="209.25" height="52.875" rx="21.375" stroke="black" stroke-width="2.25"/>
</svg>
